<svg xmlns="http://www.w3.org/2000/svg" viewBox="0 0 800 800">
  <defs>
    <linearGradient id="iconOrange" x1="0%" y1="0%" x2="100%" y2="100%">
      <stop offset="0%" style="stop-color:#ff8533"/>
      <stop offset="100%" style="stop-color:#ff6b00"/>
    </linearGradient>
    
    <linearGradient id="iconBlue" x1="0%" y1="0%" x2="100%" y2="100%">
      <stop offset="0%" style="stop-color:#4fc3f7"/>
      <stop offset="100%" style="stop-color:#2196f3"/>
    </linearGradient>
    
    <linearGradient id="iconGreen" x1="0%" y1="0%" x2="100%" y2="100%">
      <stop offset="0%" style="stop-color:#69f0ae"/>
      <stop offset="100%" style="stop-color:#00c853"/>
    </linearGradient>
    
    <linearGradient id="iconPurple" x1="0%" y1="0%" x2="100%" y2="100%">
      <stop offset="0%" style="stop-color:#ce93d8"/>
      <stop offset="100%" style="stop-color:#9c27b0"/>
    </linearGradient>
    
    <linearGradient id="iconRed" x1="0%" y1="0%" x2="100%" y2="100%">
      <stop offset="0%" style="stop-color:#ff8a80"/>
      <stop offset="100%" style="stop-color:#f44336"/>
    </linearGradient>
    
    <linearGradient id="iconYellow" x1="0%" y1="0%" x2="100%" y2="100%">
      <stop offset="0%" style="stop-color:#fff176"/>
      <stop offset="100%" style="stop-color:#ffc107"/>
    </linearGradient>
  </defs>
  
  <!-- File Manager Icon (Row 1, Col 1) -->
  <g transform="translate(0, 0)">
    <rect width="200" height="200" fill="#1a1a1a" rx="20"/>
    <rect x="30" y="50" width="140" height="100" fill="url(#iconOrange)" rx="10"/>
    <path d="M 30 70 L 30 60 Q 30 50 40 50 L 80 50 L 95 70 L 160 70 Q 170 70 170 80 L 170 150 Q 170 160 160 160 L 40 160 Q 30 160 30 150 Z" fill="#ff6b00"/>
  </g>
  
  <!-- Terminal Icon (Row 1, Col 2) -->
  <g transform="translate(200, 0)">
    <rect width="200" height="200" fill="#1a1a1a" rx="20"/>
    <rect x="30" y="40" width="140" height="120" fill="#0a0a0a" rx="8" stroke="url(#iconGreen)" stroke-width="2"/>
    <polyline points="50,80 75,100 50,120" fill="none" stroke="#00c853" stroke-width="3" stroke-linecap="round" stroke-linejoin="round"/>
    <line x1="85" y1="120" x2="140" y2="120" stroke="#00c853" stroke-width="3" stroke-linecap="round"/>
  </g>
  
  <!-- Browser Icon (Row 1, Col 3) -->
  <g transform="translate(400, 0)">
    <rect width="200" height="200" fill="#1a1a1a" rx="20"/>
    <circle cx="100" cy="100" r="60" fill="none" stroke="url(#iconBlue)" stroke-width="8"/>
    <ellipse cx="100" cy="100" rx="60" ry="25" fill="none" stroke="#2196f3" stroke-width="3"/>
    <ellipse cx="100" cy="100" rx="25" ry="60" fill="none" stroke="#2196f3" stroke-width="3"/>
    <line x1="40" y1="100" x2="160" y2="100" stroke="#2196f3" stroke-width="2"/>
    <line x1="100" y1="40" x2="100" y2="160" stroke="#2196f3" stroke-width="2"/>
  </g>
  
  <!-- Code Editor Icon (Row 1, Col 4) -->
  <g transform="translate(600, 0)">
    <rect width="200" height="200" fill="#1a1a1a" rx="20"/>
    <rect x="35" y="40" width="130" height="120" fill="#0d0d0d" rx="8" stroke="url(#iconPurple)" stroke-width="2"/>
    <polyline points="55,70 75,90 55,110" fill="none" stroke="#ce93d8" stroke-width="3" stroke-linecap="round" stroke-linejoin="round"/>
    <polyline points="105,70 85,90 105,110" fill="none" stroke="#ce93d8" stroke-width="3" stroke-linecap="round" stroke-linejoin="round"/>
    <line x1="115" y1="120" x2="145" y2="60" stroke="#ce93d8" stroke-width="3" stroke-linecap="round"/>
  </g>
  
  <!-- Settings Icon (Row 2, Col 1) -->
  <g transform="translate(0, 200)">
    <rect width="200" height="200" fill="#1a1a1a" rx="20"/>
    <g transform="translate(100, 100)">
      <circle cx="0" cy="0" r="25" fill="none" stroke="url(#iconOrange)" stroke-width="8"/>
      <circle cx="0" cy="-45" r="10" fill="#ff6b00"/>
      <circle cx="39" cy="-22.5" r="10" fill="#ff6b00"/>
      <circle cx="39" cy="22.5" r="10" fill="#ff6b00"/>
      <circle cx="0" cy="45" r="10" fill="#ff6b00"/>
      <circle cx="-39" cy="22.5" r="10" fill="#ff6b00"/>
      <circle cx="-39" cy="-22.5" r="10" fill="#ff6b00"/>
    </g>
  </g>
  
  <!-- Notes Icon (Row 2, Col 2) -->
  <g transform="translate(200, 200)">
    <rect width="200" height="200" fill="#1a1a1a" rx="20"/>
    <rect x="40" y="30" width="120" height="140" fill="url(#iconYellow)" rx="8"/>
    <line x1="60" y1="60" x2="140" y2="60" stroke="#1a1a1a" stroke-width="3" stroke-linecap="round"/>
    <line x1="60" y1="85" x2="140" y2="85" stroke="#1a1a1a" stroke-width="3" stroke-linecap="round"/>
    <line x1="60" y1="110" x2="120" y2="110" stroke="#1a1a1a" stroke-width="3" stroke-linecap="round"/>
    <line x1="60" y1="135" x2="100" y2="135" stroke="#1a1a1a" stroke-width="3" stroke-linecap="round"/>
  </g>
  
  <!-- Calendar Icon (Row 2, Col 3) -->
  <g transform="translate(400, 200)">
    <rect width="200" height="200" fill="#1a1a1a" rx="20"/>
    <rect x="35" y="50" width="130" height="110" fill="url(#iconRed)" rx="8"/>
    <rect x="35" y="50" width="130" height="30" fill="#f44336" rx="8"/>
    <rect x="35" y="70" width="130" height="10" fill="#f44336"/>
    <circle cx="70" cy="110" r="8" fill="#ffffff"/>
    <circle cx="100" cy="110" r="8" fill="#ffffff"/>
    <circle cx="130" cy="110" r="8" fill="#ffffff"/>
    <circle cx="70" cy="135" r="8" fill="#ffffff" opacity="0.5"/>
    <circle cx="100" cy="135" r="8" fill="#ffffff"/>
    <rect x="55" y="35" width="10" height="25" fill="#ffffff" rx="3"/>
    <rect x="135" y="35" width="10" height="25" fill="#ffffff" rx="3"/>
  </g>
  
  <!-- Photos Icon (Row 2, Col 4) -->
  <g transform="translate(600, 200)">
    <rect width="200" height="200" fill="#1a1a1a" rx="20"/>
    <rect x="30" y="50" width="140" height="100" fill="url(#iconGreen)" rx="10"/>
    <circle cx="70" cy="85" r="12" fill="#ffffff"/>
    <path d="M 30 130 L 80 90 L 110 115 L 140 80 L 170 130 L 170 150 L 30 150 Z" fill="#00a846"/>
  </g>
  
  <!-- Music Player Icon (Row 3, Col 1) -->
  <g transform="translate(0, 400)">
    <rect width="200" height="200" fill="#1a1a1a" rx="20"/>
    <circle cx="100" cy="100" r="60" fill="url(#iconPurple)" stroke="#9c27b0" stroke-width="3"/>
    <circle cx="100" cy="100" r="20" fill="#1a1a1a"/>
    <circle cx="100" cy="100" r="8" fill="#ce93d8"/>
    <rect x="130" y="45" width="8" height="50" fill="#ffffff" rx="4"/>
    <circle cx="134" cy="95" r="15" fill="#ffffff"/>
  </g>
  
  <!-- Calculator Icon (Row 3, Col 2) -->
  <g transform="translate(200, 400)">
    <rect width="200" height="200" fill="#1a1a1a" rx="20"/>
    <rect x="40" y="35" width="120" height="130" fill="url(#iconBlue)" rx="10"/>
    <rect x="50" y="45" width="100" height="30" fill="#0a0a0a" rx="5"/>
    <text x="140" y="68" font-family="Arial" font-size="20" fill="#2196f3" text-anchor="end">123</text>
    <rect x="50" y="85" width="22" height="18" fill="#0a0a0a" rx="3"/>
    <rect x="78" y="85" width="22" height="18" fill="#0a0a0a" rx="3"/>
    <rect x="106" y="85" width="22" height="18" fill="#0a0a0a" rx="3"/>
    <rect x="134" y="85" width="22" height="18" fill="#ff6b00" rx="3"/>
    <rect x="50" y="110" width="22" height="18" fill="#0a0a0a" rx="3"/>
    <rect x="78" y="110" width="22" height="18" fill="#0a0a0a" rx="3"/>
    <rect x="106" y="110" width="22" height="18" fill="#0a0a0a" rx="3"/>
    <rect x="134" y="110" width="22" height="18" fill="#ff6b00" rx="3"/>
    <rect x="50" y="135" width="22" height="18" fill="#0a0a0a" rx="3"/>
    <rect x="78" y="135" width="22" height="18" fill="#0a0a0a" rx="3"/>
    <rect x="106" y="135" width="22" height="18" fill="#0a0a0a" rx="3"/>
    <rect x="134" y="135" width="22" height="18" fill="#ff6b00" rx="3"/>
  </g>
  
  <!-- System Monitor Icon (Row 3, Col 3) -->
  <g transform="translate(400, 400)">
    <rect width="200" height="200" fill="#1a1a1a" rx="20"/>
    <rect x="30" y="40" width="140" height="120" fill="#0a0a0a" rx="8" stroke="url(#iconGreen)" stroke-width="2"/>
    <polyline points="45,130 65,100 85,115 105,70 125,90 145,60 165,80" fill="none" stroke="#00c853" stroke-width="3" stroke-linecap="round" stroke-linejoin="round"/>
    <line x1="45" y1="140" x2="165" y2="140" stroke="#1a1a1a" stroke-width="8"/>
    <rect x="45" y="135" width="30" height="10" fill="#ff6b00" rx="2"/>
    <rect x="85" y="135" width="50" height="10" fill="#00c853" rx="2"/>
  </g>
  
  <!-- Weather Icon (Row 3, Col 4) -->
  <g transform="translate(600, 400)">
    <rect width="200" height="200" fill="#1a1a1a" rx="20"/>
    <circle cx="85" cy="80" r="35" fill="url(#iconYellow)"/>
    <g fill="#ffffff">
      <ellipse cx="110" cy="120" rx="40" ry="25"/>
      <ellipse cx="80" cy="115" rx="30" ry="20"/>
      <ellipse cx="130" cy="118" rx="25" ry="18"/>
    </g>
    <line x1="70" y1="145" x2="70" y2="165" stroke="#4fc3f7" stroke-width="3" stroke-linecap="round"/>
    <line x1="100" y1="150" x2="100" y2="170" stroke="#4fc3f7" stroke-width="3" stroke-linecap="round"/>
    <line x1="130" y1="145" x2="130" y2="165" stroke="#4fc3f7" stroke-width="3" stroke-linecap="round"/>
  </g>
  
  <!-- Store Icon (Row 4, Col 1) -->
  <g transform="translate(0, 600)">
    <rect width="200" height="200" fill="#1a1a1a" rx="20"/>
    <rect x="35" y="60" width="130" height="100" fill="url(#iconBlue)" rx="8"/>
    <path d="M 35 60 L 100 30 L 165 60 Z" fill="#2196f3"/>
    <rect x="50" y="75" width="35" height="35" fill="#ffffff" rx="5"/>
    <rect x="95" y="75" width="35" height="35" fill="#ffffff" opacity="0.7" rx="5"/>
    <rect x="50" y="120" width="35" height="35" fill="#ffffff" opacity="0.5" rx="5"/>
    <rect x="95" y="120" width="35" height="35" fill="#ffffff" opacity="0.7" rx="5"/>
    <circle cx="140" cy="140" r="15" fill="#ff6b00"/>
    <text x="140" y="145" font-family="Arial" font-size="18" fill="#ffffff" text-anchor="middle">3</text>
  </g>
  
  <!-- Cloud Sync Icon (Row 4, Col 2) -->
  <g transform="translate(200, 600)">
    <rect width="200" height="200" fill="#1a1a1a" rx="20"/>
    <g fill="url(#iconBlue)">
      <ellipse cx="100" cy="110" rx="55" ry="35"/>
      <ellipse cx="65" cy="100" rx="35" ry="25"/>
      <ellipse cx="135" cy="100" rx="30" ry="22"/>
    </g>
    <path d="M 100 85 L 100 135 M 80 115 L 100 135 L 120 115" fill="none" stroke="#ffffff" stroke-width="5" stroke-linecap="round" stroke-linejoin="round"/>
  </g>
  
  <!-- AI Assistant Icon (Row 4, Col 3) -->
  <g transform="translate(400, 600)">
    <rect width="200" height="200" fill="#1a1a1a" rx="20"/>
    <circle cx="100" cy="90" r="45" fill="url(#iconOrange)" stroke="#ff6b00" stroke-width="3"/>
    <circle cx="80" cy="80" r="8" fill="#ffffff"/>
    <circle cx="120" cy="80" r="8" fill="#ffffff"/>
    <path d="M 75 105 Q 100 125 125 105" fill="none" stroke="#ffffff" stroke-width="4" stroke-linecap="round"/>
    <rect x="60" y="145" width="80" height="8" fill="#ff6b00" rx="4" opacity="0.5"/>
    <rect x="75" y="158" width="50" height="6" fill="#ff6b00" rx="3" opacity="0.3"/>
  </g>
  
  <!-- Control Center Icon (Row 4, Col 4) -->
  <g transform="translate(600, 600)">
    <rect width="200" height="200" fill="#1a1a1a" rx="20"/>
    <rect x="35" y="40" width="55" height="55" fill="url(#iconBlue)" rx="10"/>
    <rect x="110" y="40" width="55" height="55" fill="url(#iconGreen)" rx="10"/>
    <rect x="35" y="105" width="55" height="55" fill="url(#iconOrange)" rx="10"/>
    <rect x="110" y="105" width="55" height="55" fill="url(#iconPurple)" rx="10"/>
    <!-- Icons inside -->
    <circle cx="62" cy="67" r="10" fill="#ffffff" opacity="0.8"/>
    <path d="M 137 67 L 137 47 M 127 57 L 147 57" stroke="#ffffff" stroke-width="3" stroke-linecap="round"/>
    <rect x="47" y="120" width="30" height="20" fill="#ffffff" opacity="0.8" rx="3"/>
    <circle cx="137" cy="132" r="15" fill="#ffffff" opacity="0.8"/>
  </g>
</svg>